<?xml version="1.0" standalone="no"?>
<!DOCTYPE svg PUBLIC "-//W3C//DTD SVG 20010904//EN"
 "http://www.w3.org/TR/2001/REC-SVG-20010904/DTD/svg10.dtd">
<svg version="1.0" xmlns="http://www.w3.org/2000/svg"
 width="260.000000pt" height="260.000000pt" viewBox="0 0 260.000000 260.000000"
 preserveAspectRatio="xMidYMid meet">
<metadata>
Created by potrace 1.11, written by Peter Selinger 2001-2013
</metadata>
<g transform="translate(0.000000,260.000000) scale(0.100000,-0.100000)"
fill="#000000" stroke="none">
<path d="M650 2463 c-109 -17 -250 -65 -432 -147 l-58 -26 0 -419 0 -420 83
36 c255 111 365 143 493 143 136 0 237 -31 634 -198 251 -105 412 -140 566
-121 82 11 260 66 404 127 l95 40 3 421 c1 232 0 421 -2 421 -3 0 -68 -27
-146 -60 -314 -133 -456 -148 -699 -74 -85 26 -224 82 -341 136 -62 29 -178
74 -265 103 -106 36 -248 52 -335 38z"/>
<path d="M555 1270 c-69 -18 -225 -76 -337 -127 l-58 -26 0 -419 c0 -332 3
-419 12 -415 7 2 72 30 143 60 201 86 290 109 415 110 129 1 213 -20 414 -102
77 -32 196 -82 264 -110 199 -82 295 -105 437 -106 151 0 173 5 433 106 l162
63 0 418 c0 230 -3 418 -6 418 -3 0 -78 -29 -167 -64 -236 -94 -304 -109 -452
-103 -66 3 -133 9 -150 15 -16 5 -61 20 -100 32 -59 19 -295 116 -440 180 -54
24 -119 46 -212 70 -99 26 -258 26 -358 0z"/>
</g>
</svg>
